<svg width="138" height="137" viewBox="0 0 138 137" fill="none" xmlns="http://www.w3.org/2000/svg">
<g filter="url(#filter0_d_257_370)">
<path d="M45.1466 51.0517C46.1391 45.4915 50.4915 41.1391 56.0517 40.1466C64.6162 38.6178 73.3838 38.6178 81.9483 40.1466C87.5085 41.1391 91.8609 45.4915 92.8534 51.0517C94.3822 59.6162 94.3822 68.3838 92.8534 76.9483C91.8609 82.5085 87.5085 86.8609 81.9483 87.8534C73.3838 89.3822 64.6162 89.3822 56.0517 87.8534C50.4915 86.8609 46.1391 82.5085 45.1466 76.9483C43.6178 68.3838 43.6178 59.6162 45.1466 51.0517Z" fill="white"/>
</g>
<path fill-rule="evenodd" clip-rule="evenodd" d="M62.1245 46.9092C62.2279 46.8025 62.4087 46.8757 62.4087 47.0244V53.8367H62.4089V68.4878C62.4089 71.2898 64.6803 73.5612 67.4823 73.5612H70.6893C73.4912 73.5612 75.7627 71.2898 75.7627 68.4878V60.2486C75.7627 59.3121 75.0035 58.5529 74.0669 58.5529H72.2709V62.8552C72.2709 62.8607 72.271 62.8663 72.271 62.8719V68.7424C72.271 69.6485 71.5364 70.383 70.6304 70.383H69.1813C69.1107 70.3875 69.0395 70.3898 68.9678 70.3898C68.8961 70.3898 68.8249 70.3875 68.7543 70.383H67.3053C66.3993 70.383 65.6647 69.6485 65.6647 68.7424V67.0934C65.6647 67.0912 65.6647 67.0889 65.6647 67.0867V55.5325C65.6647 54.5959 66.4239 53.8367 67.3605 53.8367H77.521C80.186 53.8367 82.3463 55.9971 82.3463 58.662V68.0077C82.3463 71.1195 82.3463 79.7104 68.9823 79.7104C55.6183 79.7104 55.6183 71.2628 55.6183 68.0077V58.6514H51.1396C50.9935 58.6514 50.9191 58.4758 51.0208 58.3708L62.1245 46.9092Z" fill="url(#paint0_linear_257_370)"/>
<path fill-rule="evenodd" clip-rule="evenodd" d="M77.8476 53.8654C80.3599 54.0337 82.3456 56.1248 82.3456 58.6798V68.0255C82.3456 70.7534 82.3456 77.692 73.3424 79.3624L73.0835 79.2983C64.9467 78.2448 62.9354 72.6427 62.8213 70.5141C63.5994 72.3171 65.3931 73.579 67.4816 73.579H70.6886C73.4906 73.579 75.762 71.3076 75.762 68.5056V60.2664C75.762 59.3299 75.0028 58.5707 74.0663 58.5707H72.2737C72.3964 56.1263 74.9242 53.899 77.8476 53.8654Z" fill="url(#paint1_linear_257_370)"/>
<path fill-rule="evenodd" clip-rule="evenodd" d="M72.272 58.5701C72.3947 56.1258 74.9225 53.8985 77.8459 53.8649C77.7378 53.8577 77.6287 53.8539 77.5187 53.8539H67.3581C66.4216 53.8539 65.6624 54.6131 65.6624 55.5497V62.8785C65.6624 62.8821 65.6624 62.8856 65.6624 62.8892V68.7596C65.6624 69.6657 66.3969 70.4002 67.3029 70.4002H68.752C68.8226 70.4047 68.8937 70.407 68.9655 70.407C69.0372 70.407 69.1084 70.4047 69.179 70.4002H70.628C71.5341 70.4002 72.2686 69.6657 72.2686 68.7596V62.8892C72.2686 62.885 72.2686 62.8808 72.2685 62.8766V58.5701L72.272 58.5701Z" fill="url(#paint2_linear_257_370)"/>
<defs>
<filter id="filter0_d_257_370" x="0.889645" y="0.45427" width="136.221" height="136.221" filterUnits="userSpaceOnUse" color-interpolation-filters="sRGB">
<feFlood flood-opacity="0" result="BackgroundImageFix"/>
<feColorMatrix in="SourceAlpha" type="matrix" values="0 0 0 0 0 0 0 0 0 0 0 0 0 0 0 0 0 0 127 0" result="hardAlpha"/>
<feOffset dy="4.56463"/>
<feGaussianBlur stdDeviation="21.5552"/>
<feComposite in2="hardAlpha" operator="out"/>
<feColorMatrix type="matrix" values="0 0 0 0 0.152941 0 0 0 0 0.164706 0 0 0 0 0.329412 0 0 0 0.21 0"/>
<feBlend mode="normal" in2="BackgroundImageFix" result="effect1_dropShadow_257_370"/>
<feBlend mode="normal" in="SourceGraphic" in2="effect1_dropShadow_257_370" result="shape"/>
</filter>
<linearGradient id="paint0_linear_257_370" x1="57.3785" y1="49.0968" x2="79.4115" y2="79.697" gradientUnits="userSpaceOnUse">
<stop stop-color="#00FE9F"/>
<stop offset="1" stop-color="#2931FE"/>
</linearGradient>
<linearGradient id="paint1_linear_257_370" x1="78.22" y1="57.0998" x2="64.4266" y2="73.6272" gradientUnits="userSpaceOnUse">
<stop stop-color="#5A0DFF"/>
<stop offset="0.295882" stop-color="#0D11FF"/>
<stop offset="1" stop-color="#0692FF"/>
</linearGradient>
<linearGradient id="paint2_linear_257_370" x1="65.6624" y1="67.8345" x2="76.0682" y2="58.387" gradientUnits="userSpaceOnUse">
<stop stop-color="#2931FD"/>
<stop offset="0.695207" stop-color="#7F38FE"/>
<stop offset="1" stop-color="#9938FA"/>
</linearGradient>
</defs>
</svg>
