<svg width="113" height="70" viewBox="0 0 113 70" fill="none" xmlns="http://www.w3.org/2000/svg">
<path fill-rule="evenodd" clip-rule="evenodd" d="M78.0574 1.05562C86.2907 1.05562 92.0118 2.44166 96.9119 5.04379C101.812 7.64618 105.658 11.4647 108.279 16.3306C110.899 21.1965 112.294 26.8786 112.294 35.0548C112.294 43.2308 110.899 48.9131 108.279 53.779C105.658 58.6449 101.812 62.4632 96.9119 65.0656C92.0118 67.6679 86.2907 69.0539 78.0574 69.0539L42.7351 68.9442C34.5026 68.9442 28.7805 67.5581 23.8804 64.9558C22.817 64.3908 21.8036 63.7693 20.8436 63.0894C14.9534 66.7975 7.96883 68.9442 0.479134 68.9442L-1.52588e-05 68.946C1.88075 67.1294 3.47066 65.023 4.74852 62.6499C7.19427 58.1083 8.4972 53.6029 8.4972 41.1815V34.9451V34.7857C8.49825 34.8384 8.4972 34.8922 8.4972 34.9451L8.49915 34.7857C8.51552 26.6951 9.91039 21.0551 12.5134 16.2208C15.135 11.3549 18.9802 7.5364 23.8804 4.93401C28.7805 2.33187 34.5026 0.945831 42.7351 0.945831L78.0574 1.05562Z" fill="white"/>
<path fill-rule="evenodd" clip-rule="evenodd" d="M52.4775 15.0616C52.6035 14.9316 52.8236 15.0207 52.8236 15.2017V23.4964H52.8238V41.3354C52.8238 44.747 55.5894 47.5127 59.0011 47.5127H62.9059C66.3175 47.5127 69.0832 44.747 69.0832 41.3354V31.3034C69.0832 30.1631 68.1588 29.2387 67.0185 29.2387H64.8316V34.4771C64.8317 34.4839 64.8317 34.4907 64.8317 34.4975V41.6453C64.8317 42.7486 63.9374 43.6429 62.8342 43.6429H61.0698C60.9839 43.6484 60.8972 43.6512 60.8099 43.6512C60.7225 43.6512 60.6358 43.6484 60.5499 43.6429H58.7856C57.6824 43.6429 56.7881 42.7486 56.7881 41.6453V39.6376C56.7881 39.6349 56.7881 39.6321 56.7881 39.6294V25.5611C56.7881 24.4208 57.7125 23.4964 58.8528 23.4964H71.2242C74.4689 23.4964 77.0994 26.1268 77.0994 29.3716V40.7508C77.0994 44.5397 77.0994 54.9999 60.8275 54.9999C44.5557 54.9999 44.5556 44.7142 44.5557 40.7508V29.3587H39.1025C38.9246 29.3587 38.834 29.1449 38.9578 29.0171L52.4775 15.0616Z" fill="url(#paint0_linear_1_3852)"/>
<path fill-rule="evenodd" clip-rule="evenodd" d="M71.6218 23.5312C74.6808 23.736 77.0986 26.2822 77.0986 29.393V40.7723C77.0986 44.0938 77.0986 52.5421 66.1363 54.576L65.8211 54.498C55.9138 53.2152 53.4649 46.3942 53.326 43.8025C54.2734 45.9977 56.4574 47.5342 59.0003 47.5342H62.9051C66.3167 47.5342 69.0824 44.7685 69.0824 41.3569V31.3249C69.0824 30.1846 68.158 29.2602 67.0177 29.2602H64.8351C64.9845 26.284 68.0623 23.5721 71.6218 23.5312Z" fill="url(#paint1_linear_1_3852)"/>
<path fill-rule="evenodd" clip-rule="evenodd" d="M64.8328 29.2602C64.9823 26.2839 68.06 23.5721 71.6195 23.5311C71.4879 23.5223 71.355 23.5178 71.2211 23.5178H58.8498C57.7094 23.5178 56.785 24.4422 56.785 25.5825V34.506C56.785 34.5103 56.785 34.5146 56.785 34.5189V41.6667C56.785 42.7699 57.6793 43.6643 58.7826 43.6643H60.5469C60.6328 43.6698 60.7195 43.6726 60.8068 43.6726C60.8942 43.6726 60.9808 43.6698 61.0668 43.6643H62.8311C63.9343 43.6643 64.8287 42.7699 64.8287 41.6667V34.5189C64.8287 34.5138 64.8286 34.5087 64.8286 34.5036V29.2601L64.8328 29.2602Z" fill="url(#paint2_linear_1_3852)"/>
<defs>
<linearGradient id="paint0_linear_1_3852" x1="46.6989" y1="17.7251" x2="73.526" y2="54.9835" gradientUnits="userSpaceOnUse">
<stop stop-color="#00FE9F"/>
<stop offset="1" stop-color="#2931FE"/>
</linearGradient>
<linearGradient id="paint1_linear_1_3852" x1="72.0753" y1="27.4694" x2="55.2806" y2="47.5929" gradientUnits="userSpaceOnUse">
<stop stop-color="#5A0DFF"/>
<stop offset="0.295882" stop-color="#0D11FF"/>
<stop offset="1" stop-color="#0692FF"/>
</linearGradient>
<linearGradient id="paint2_linear_1_3852" x1="56.785" y1="40.5403" x2="69.455" y2="29.0372" gradientUnits="userSpaceOnUse">
<stop stop-color="#2931FD"/>
<stop offset="0.695207" stop-color="#7F38FE"/>
<stop offset="1" stop-color="#9938FA"/>
</linearGradient>
</defs>
</svg>
