<svg width="23" height="22" viewBox="0 0 23 22" fill="none" xmlns="http://www.w3.org/2000/svg">
<path d="M20.8759 11.2137C20.8759 10.4224 20.8104 9.84485 20.6686 9.24597H11.4474V12.8179H16.86C16.751 13.7055 16.1617 15.0424 14.8521 15.9406L14.8338 16.0602L17.7493 18.2737L17.9513 18.2935C19.8065 16.6144 20.8759 14.144 20.8759 11.2137Z" fill="#4285F4"/>
<path d="M11.4468 20.625C14.0985 20.625 16.3247 19.7694 17.9507 18.2936L14.8515 15.9408C14.0222 16.5076 12.9091 16.9033 11.4468 16.9033C8.84961 16.9033 6.64527 15.2243 5.85948 12.9036L5.7443 12.9131L2.71265 15.2125L2.673 15.3205C4.28806 18.4647 7.60552 20.625 11.4468 20.625Z" fill="#34A853"/>
<path d="M5.86006 12.9036C5.65272 12.3047 5.53273 11.663 5.53273 11C5.53273 10.3369 5.65272 9.69524 5.84915 9.09636L5.84366 8.96881L2.774 6.63257L2.67357 6.67938C2.00792 7.98412 1.62598 9.44929 1.62598 11C1.62598 12.5507 2.00792 14.0158 2.67357 15.3205L5.86006 12.9036Z" fill="#FBBC05"/>
<path d="M11.4469 5.09664C13.2911 5.09664 14.5351 5.87733 15.2445 6.52974L18.0163 3.8775C16.3139 2.32681 14.0986 1.375 11.4469 1.375C7.60554 1.375 4.28807 3.53526 2.673 6.6794L5.84859 9.09638C6.64529 6.77569 8.84964 5.09664 11.4469 5.09664Z" fill="#EB4335"/>
</svg>
