<svg width="188" height="50" viewBox="0 0 188 50" fill="none" xmlns="http://www.w3.org/2000/svg">
<path fill-rule="evenodd" clip-rule="evenodd" d="M17.8942 0.0771007C18.0516 -0.0854028 18.3268 0.0260461 18.3268 0.252301V10.6206H18.327V32.9194C18.327 37.1839 21.7841 40.641 26.0486 40.641H30.9296C35.1942 40.641 38.6513 37.1839 38.6513 32.9194V20.3794C38.6513 18.954 37.4958 17.7985 36.0704 17.7985H33.3368V24.3465C33.3369 24.355 33.3369 24.3636 33.3369 24.3721V33.3068C33.3369 34.6858 32.219 35.8038 30.84 35.8038H28.6345C28.5271 35.8106 28.4187 35.8141 28.3096 35.8141C28.2004 35.8141 28.0921 35.8106 27.9846 35.8038H25.7793C24.4003 35.8038 23.2824 34.6858 23.2824 33.3068V30.7971C23.2824 30.7937 23.2824 30.7903 23.2824 30.7869V13.2015C23.2824 11.7761 24.4379 10.6206 25.8632 10.6206H41.3275C45.3834 10.6206 48.6715 13.9086 48.6715 17.9646V32.1886C48.6715 36.9248 48.6715 50 28.3317 50C7.99184 50 7.99181 37.1429 7.99184 32.1886V17.9485H1.17539C0.952988 17.9485 0.839796 17.6812 0.994545 17.5215L17.8942 0.0771007Z" fill="url(#paint0_linear_1_3872)"/>
<path fill-rule="evenodd" clip-rule="evenodd" d="M41.8245 10.6641C45.6482 10.9201 48.6705 14.1028 48.6705 17.9914V32.2154C48.6705 36.3674 48.6705 46.9278 34.9676 49.4701L34.5737 49.3726C22.1895 47.7691 19.1284 39.2429 18.9547 36.0032C20.139 38.7472 22.869 40.6679 26.0476 40.6679H30.9286C35.1932 40.6679 38.6503 37.2108 38.6503 32.9462V20.4062C38.6503 18.9809 37.4948 17.8254 36.0694 17.8254H33.3411C33.5279 14.1051 37.3751 10.7152 41.8245 10.6641Z" fill="url(#paint1_linear_1_3872)"/>
<path fill-rule="evenodd" clip-rule="evenodd" d="M33.3384 17.8253C33.5251 14.105 37.3723 10.7152 41.8217 10.664C41.6572 10.653 41.4911 10.6473 41.3237 10.6473H25.8595C24.4341 10.6473 23.2786 11.8028 23.2786 13.2282V24.3826C23.2786 24.388 23.2786 24.3934 23.2786 24.3988V33.3335C23.2786 34.7126 24.3965 35.8305 25.7755 35.8305H27.9809C28.0883 35.8374 28.1967 35.8408 28.3058 35.8408C28.415 35.8408 28.5234 35.8374 28.6308 35.8305H30.8362C32.2152 35.8305 33.3331 34.7126 33.3331 33.3335V24.3988C33.3331 24.3924 33.3331 24.3861 33.3331 24.3797V17.8253L33.3384 17.8253Z" fill="url(#paint2_linear_1_3872)"/>
<path d="M69.5604 40C66.9108 40 64.7598 39.2308 63.1074 37.6923C61.4835 36.1254 60.6715 34.0171 60.6715 31.3675V19.1453H66.0561V30.3846C66.0561 31.8661 66.4407 33.0199 67.21 33.8462C68.0077 34.6439 69.1615 35.0427 70.6715 35.0427C72.039 35.0427 73.1929 34.5299 74.133 33.5043C75.1017 32.4786 75.586 31.1254 75.586 29.4444V19.1453H80.9707V39.4444H75.586V37.906C74.2755 39.302 72.267 40 69.5604 40Z" fill="#272A54"/>
<path d="M88.8062 36.8803C86.9258 34.7721 85.9857 32.2507 85.9857 29.3162C85.9857 26.3818 86.9258 23.8604 88.8062 21.7521C90.715 19.6439 93.2364 18.5897 96.3703 18.5897C98.9059 18.5897 100.886 19.302 102.31 20.7265V10.8547H107.695V39.4444H102.31V37.906C100.914 39.302 98.9344 40 96.3703 40C93.2364 40 90.715 38.9601 88.8062 36.8803ZM91.3703 29.3162C91.3703 30.9117 91.8831 32.265 92.9088 33.3761C93.9344 34.4872 95.2307 35.0427 96.7976 35.0427C98.3646 35.0427 99.7036 34.5442 100.815 33.547C101.954 32.5499 102.524 31.1396 102.524 29.3162C102.524 27.4929 101.954 26.0826 100.815 25.0855C99.6751 24.0598 98.3361 23.547 96.7976 23.547C95.2307 23.547 93.9344 24.1168 92.9088 25.2564C91.8831 26.396 91.3703 27.7493 91.3703 29.3162Z" fill="#272A54"/>
<path d="M113.849 19.1453H119.234V21.2393C119.689 20.5556 120.402 20.0142 121.37 19.6154C122.339 19.188 123.407 18.9744 124.575 18.9744H127.054V24.1026H124.533C122.852 24.1026 121.541 24.6011 120.601 25.5983C119.689 26.5954 119.234 27.9202 119.234 29.5727V39.4444H113.849V19.1453Z" fill="#272A54"/>
<path d="M131.498 15.8547V10H137.396V15.8547H131.498ZM131.755 19.1453H137.139V39.4444H131.755V19.1453Z" fill="#272A54"/>
<path d="M164.165 19.1453L154.977 39.4444H149.892L140.704 19.1453H146.644L152.542 32.2222L158.439 19.1453H164.165Z" fill="#272A54"/>
<path d="M181.368 33.2906H187.18C186.383 35.3419 185.072 36.9801 183.249 38.2051C181.425 39.4017 179.402 40 177.18 40C174.018 40 171.397 38.9886 169.317 36.9658C167.237 34.9145 166.197 32.3504 166.197 29.2735C166.197 26.2251 167.209 23.6895 169.232 21.6667C171.254 19.6154 173.833 18.5897 176.967 18.5897C180.072 18.5897 182.608 19.6011 184.573 21.6239C186.539 23.6467 187.522 26.1681 187.522 29.188C187.522 30.1282 187.494 30.755 187.437 31.0684H171.796C172.081 32.2934 172.707 33.2621 173.676 33.9744C174.673 34.6866 175.841 35.0427 177.18 35.0427C179.032 35.0427 180.428 34.4587 181.368 33.2906ZM171.924 27.0513H181.796C181.625 25.8832 181.098 24.9573 180.214 24.2735C179.331 23.5613 178.249 23.2051 176.967 23.2051C175.713 23.2051 174.602 23.5613 173.633 24.2735C172.665 24.9858 172.095 25.9117 171.924 27.0513Z" fill="#272A54"/>
<defs>
<linearGradient id="paint0_linear_1_3872" x1="10.6709" y1="3.40658" x2="44.2047" y2="49.9796" gradientUnits="userSpaceOnUse">
<stop stop-color="#00FE9F"/>
<stop offset="1" stop-color="#2931FE"/>
</linearGradient>
<linearGradient id="paint1_linear_1_3872" x1="42.3914" y1="15.5868" x2="21.398" y2="40.7413" gradientUnits="userSpaceOnUse">
<stop stop-color="#5A0DFF"/>
<stop offset="0.295882" stop-color="#0D11FF"/>
<stop offset="1" stop-color="#0692FF"/>
</linearGradient>
<linearGradient id="paint2_linear_1_3872" x1="23.2786" y1="31.9256" x2="39.1161" y2="17.5466" gradientUnits="userSpaceOnUse">
<stop stop-color="#2931FD"/>
<stop offset="0.695207" stop-color="#7F38FE"/>
<stop offset="1" stop-color="#9938FA"/>
</linearGradient>
</defs>
</svg>
