<svg width="232" height="137" viewBox="0 0 232 137" fill="none" xmlns="http://www.w3.org/2000/svg">
<g filter="url(#filter0_d_1_3728)">
<path d="M45.1466 51.0517C46.1391 45.4915 50.4915 41.1391 56.0517 40.1466C64.6162 38.6178 73.3838 38.6178 81.9483 40.1466C87.5085 41.1391 91.8609 45.4915 92.8534 51.0517C94.3822 59.6162 94.3822 68.3838 92.8534 76.9483C91.8609 82.5085 87.5085 86.8609 81.9483 87.8534C73.3838 89.3822 64.6162 89.3822 56.0517 87.8534C50.4915 86.8609 46.1391 82.5085 45.1466 76.9483C43.6178 68.3838 43.6178 59.6162 45.1466 51.0517Z" fill="white"/>
</g>
<path fill-rule="evenodd" clip-rule="evenodd" d="M62.1245 46.9092C62.2279 46.8025 62.4087 46.8757 62.4087 47.0244V53.8367H62.4089V68.4878C62.4089 71.2898 64.6803 73.5612 67.4823 73.5612H70.6893C73.4912 73.5612 75.7627 71.2898 75.7627 68.4878V60.2486C75.7627 59.3121 75.0035 58.5529 74.0669 58.5529H72.2709V62.8552C72.2709 62.8607 72.271 62.8663 72.271 62.8719V68.7424C72.271 69.6485 71.5364 70.383 70.6304 70.383H69.1813C69.1107 70.3875 69.0395 70.3898 68.9678 70.3898C68.8961 70.3898 68.8249 70.3875 68.7543 70.383H67.3053C66.3993 70.383 65.6647 69.6485 65.6647 68.7424V67.0934C65.6647 67.0912 65.6647 67.0889 65.6647 67.0867V55.5325C65.6647 54.5959 66.4239 53.8367 67.3605 53.8367H77.521C80.186 53.8367 82.3463 55.9971 82.3463 58.662V68.0077C82.3463 71.1195 82.3463 79.7104 68.9823 79.7104C55.6183 79.7104 55.6183 71.2628 55.6183 68.0077V58.6514H51.1396C50.9935 58.6514 50.9191 58.4758 51.0208 58.3708L62.1245 46.9092Z" fill="url(#paint0_linear_1_3728)"/>
<path fill-rule="evenodd" clip-rule="evenodd" d="M77.8476 53.8654C80.3599 54.0337 82.3456 56.1248 82.3456 58.6798V68.0255C82.3456 70.7534 82.3456 77.692 73.3424 79.3624L73.0835 79.2983C64.9467 78.2448 62.9354 72.6427 62.8213 70.5141C63.5994 72.3171 65.3931 73.579 67.4816 73.579H70.6886C73.4906 73.579 75.762 71.3076 75.762 68.5056V60.2664C75.762 59.3299 75.0028 58.5707 74.0663 58.5707H72.2737C72.3964 56.1263 74.9242 53.899 77.8476 53.8654Z" fill="url(#paint1_linear_1_3728)"/>
<path fill-rule="evenodd" clip-rule="evenodd" d="M72.272 58.5701C72.3947 56.1258 74.9225 53.8985 77.8459 53.8649C77.7378 53.8577 77.6287 53.8539 77.5187 53.8539H67.3581C66.4216 53.8539 65.6624 54.6131 65.6624 55.5497V62.8785C65.6624 62.8821 65.6624 62.8856 65.6624 62.8892V68.7596C65.6624 69.6657 66.3969 70.4002 67.3029 70.4002H68.752C68.8226 70.4047 68.8937 70.407 68.9655 70.407C69.0372 70.407 69.1084 70.4047 69.179 70.4002H70.628C71.5341 70.4002 72.2686 69.6657 72.2686 68.7596V62.8892C72.2686 62.885 72.2686 62.8808 72.2685 62.8766V58.5701L72.272 58.5701Z" fill="url(#paint2_linear_1_3728)"/>
<path d="M113.889 79C111.239 79 109.088 78.2308 107.436 76.6923C105.812 75.1254 105 73.0171 105 70.3675V58.1453H110.385V69.3846C110.385 70.8661 110.769 72.0199 111.538 72.8462C112.336 73.6439 113.49 74.0427 115 74.0427C116.368 74.0427 117.521 73.5299 118.462 72.5043C119.43 71.4786 119.915 70.1254 119.915 68.4444V58.1453H125.299V78.4444H119.915V76.906C118.604 78.302 116.595 79 113.889 79Z" fill="#F6F9FE"/>
<path d="M133.135 75.8803C131.254 73.7721 130.314 71.2507 130.314 68.3162C130.314 65.3818 131.254 62.8604 133.135 60.7521C135.044 58.6439 137.565 57.5897 140.699 57.5897C143.234 57.5897 145.214 58.302 146.639 59.7265V49.8547H152.024V78.4444H146.639V76.906C145.243 78.302 143.263 79 140.699 79C137.565 79 135.044 77.9601 133.135 75.8803ZM135.699 68.3162C135.699 69.9117 136.212 71.265 137.237 72.3761C138.263 73.4872 139.559 74.0427 141.126 74.0427C142.693 74.0427 144.032 73.5442 145.143 72.547C146.283 71.5499 146.853 70.1396 146.853 68.3162C146.853 66.4929 146.283 65.0826 145.143 64.0855C144.004 63.0598 142.665 62.547 141.126 62.547C139.559 62.547 138.263 63.1168 137.237 64.2564C136.212 65.396 135.699 66.7493 135.699 68.3162Z" fill="#F6F9FE"/>
<path d="M158.177 58.1453H163.562V60.2393C164.018 59.5556 164.73 59.0142 165.699 58.6154C166.667 58.188 167.736 57.9744 168.904 57.9744H171.383V63.1026H168.861C167.18 63.1026 165.87 63.6011 164.93 64.5983C164.018 65.5954 163.562 66.9202 163.562 68.5727V78.4444H158.177V58.1453Z" fill="#F6F9FE"/>
<path d="M175.827 54.8547V49H181.724V54.8547H175.827ZM176.083 58.1453H181.468V78.4444H176.083V58.1453Z" fill="#F6F9FE"/>
<path d="M208.494 58.1453L199.306 78.4444H194.22L185.032 58.1453H190.973L196.87 71.2222L202.767 58.1453H208.494Z" fill="#F6F9FE"/>
<path d="M225.697 72.2906H231.509C230.711 74.3419 229.4 75.9801 227.577 77.2051C225.754 78.4017 223.731 79 221.509 79C218.346 79 215.725 77.9886 213.646 75.9658C211.566 73.9145 210.526 71.3504 210.526 68.2735C210.526 65.2251 211.537 62.6895 213.56 60.6667C215.583 58.6154 218.161 57.5897 221.295 57.5897C224.4 57.5897 226.936 58.6011 228.902 60.6239C230.868 62.6467 231.851 65.1681 231.851 68.188C231.851 69.1282 231.822 69.755 231.765 70.0684H216.124C216.409 71.2934 217.036 72.2621 218.004 72.9744C219.002 73.6866 220.17 74.0427 221.509 74.0427C223.361 74.0427 224.757 73.4587 225.697 72.2906ZM216.252 66.0513H226.124C225.953 64.8832 225.426 63.9573 224.543 63.2735C223.66 62.5613 222.577 62.2051 221.295 62.2051C220.042 62.2051 218.93 62.5613 217.962 63.2735C216.993 63.9858 216.423 64.9117 216.252 66.0513Z" fill="#F6F9FE"/>
<defs>
<filter id="filter0_d_1_3728" x="0.889645" y="0.45427" width="136.221" height="136.221" filterUnits="userSpaceOnUse" color-interpolation-filters="sRGB">
<feFlood flood-opacity="0" result="BackgroundImageFix"/>
<feColorMatrix in="SourceAlpha" type="matrix" values="0 0 0 0 0 0 0 0 0 0 0 0 0 0 0 0 0 0 127 0" result="hardAlpha"/>
<feOffset dy="4.56463"/>
<feGaussianBlur stdDeviation="21.5552"/>
<feComposite in2="hardAlpha" operator="out"/>
<feColorMatrix type="matrix" values="0 0 0 0 0.152941 0 0 0 0 0.164706 0 0 0 0 0.329412 0 0 0 0.21 0"/>
<feBlend mode="normal" in2="BackgroundImageFix" result="effect1_dropShadow_1_3728"/>
<feBlend mode="normal" in="SourceGraphic" in2="effect1_dropShadow_1_3728" result="shape"/>
</filter>
<linearGradient id="paint0_linear_1_3728" x1="57.3785" y1="49.0968" x2="79.4115" y2="79.697" gradientUnits="userSpaceOnUse">
<stop stop-color="#00FE9F"/>
<stop offset="1" stop-color="#2931FE"/>
</linearGradient>
<linearGradient id="paint1_linear_1_3728" x1="78.22" y1="57.0998" x2="64.4266" y2="73.6272" gradientUnits="userSpaceOnUse">
<stop stop-color="#5A0DFF"/>
<stop offset="0.295882" stop-color="#0D11FF"/>
<stop offset="1" stop-color="#0692FF"/>
</linearGradient>
<linearGradient id="paint2_linear_1_3728" x1="65.6624" y1="67.8345" x2="76.0682" y2="58.387" gradientUnits="userSpaceOnUse">
<stop stop-color="#2931FD"/>
<stop offset="0.695207" stop-color="#7F38FE"/>
<stop offset="1" stop-color="#9938FA"/>
</linearGradient>
</defs>
</svg>
