<svg width="32" height="34" viewBox="0 0 32 34" fill="none" xmlns="http://www.w3.org/2000/svg">
<path fill-rule="evenodd" clip-rule="evenodd" d="M11.6245 0.908995C11.728 0.802225 11.9088 0.875451 11.9088 1.02411V7.83649H11.9089V22.4876C11.9089 25.2896 14.1804 27.561 16.9823 27.561H20.1893C22.9913 27.561 25.2627 25.2896 25.2627 22.4876V14.2484C25.2627 13.3118 24.5035 12.5526 23.567 12.5526H21.7709V16.8549C21.771 16.8605 21.771 16.8661 21.771 16.8717V22.7421C21.771 23.6482 21.0365 24.3827 20.1304 24.3827H18.6814C18.6108 24.3872 18.5396 24.3895 18.4679 24.3895C18.3961 24.3895 18.325 24.3872 18.2544 24.3827H16.8054C15.8993 24.3827 15.1648 23.6482 15.1648 22.7421V21.0932C15.1648 21.091 15.1648 21.0887 15.1648 21.0865V9.53221C15.1648 8.59568 15.924 7.83648 16.8605 7.83648H27.0211C29.686 7.83648 31.8464 9.99682 31.8464 12.6617V22.0075C31.8464 25.1193 31.8464 33.7102 18.4824 33.7102C5.11836 33.7102 5.11834 25.2626 5.11836 22.0075V12.6511H0.639706C0.493578 12.6511 0.419207 12.4756 0.520883 12.3706L11.6245 0.908995Z" fill="url(#paint0_linear_1_3994)"/>
<path fill-rule="evenodd" clip-rule="evenodd" d="M27.3477 7.86542C29.86 8.03366 31.8457 10.1248 31.8457 12.6798V22.0255C31.8457 24.7534 31.8458 31.692 22.8425 33.3624L22.5836 33.2983C14.4468 32.2448 12.4355 26.6427 12.3214 24.5141C13.0995 26.3171 14.8932 27.579 16.9817 27.579H20.1887C22.9907 27.579 25.2621 25.3076 25.2621 22.5056V14.2664C25.2621 13.3299 24.5029 12.5707 23.5664 12.5707H21.7738C21.8965 10.1263 24.4243 7.89905 27.3477 7.86542Z" fill="url(#paint1_linear_1_3994)"/>
<path fill-rule="evenodd" clip-rule="evenodd" d="M21.7718 12.5703C21.8945 10.126 24.4223 7.89872 27.3457 7.86509C27.2376 7.85785 27.1285 7.85413 27.0185 7.85413H16.8579C15.9214 7.85413 15.1622 8.61333 15.1622 9.54986V16.8787C15.1622 16.8823 15.1622 16.8858 15.1622 16.8893V22.7598C15.1622 23.6659 15.8967 24.4004 16.8028 24.4004H18.2518C18.3224 24.4049 18.3936 24.4072 18.4653 24.4072C18.537 24.4072 18.6082 24.4049 18.6788 24.4004H20.1278C21.0339 24.4004 21.7684 23.6659 21.7684 22.7598V16.8893C21.7684 16.8852 21.7684 16.881 21.7683 16.8768V12.5703L21.7718 12.5703Z" fill="url(#paint2_linear_1_3994)"/>
<defs>
<linearGradient id="paint0_linear_1_3994" x1="6.8786" y1="3.09659" x2="28.9116" y2="33.6968" gradientUnits="userSpaceOnUse">
<stop stop-color="#00FE9F"/>
<stop offset="1" stop-color="#2931FE"/>
</linearGradient>
<linearGradient id="paint1_linear_1_3994" x1="27.7202" y1="11.0998" x2="13.9268" y2="27.6272" gradientUnits="userSpaceOnUse">
<stop stop-color="#5A0DFF"/>
<stop offset="0.295882" stop-color="#0D11FF"/>
<stop offset="1" stop-color="#0692FF"/>
</linearGradient>
<linearGradient id="paint2_linear_1_3994" x1="15.1622" y1="21.8347" x2="25.568" y2="12.3872" gradientUnits="userSpaceOnUse">
<stop stop-color="#2931FD"/>
<stop offset="0.695207" stop-color="#7F38FE"/>
<stop offset="1" stop-color="#9938FA"/>
</linearGradient>
</defs>
</svg>
