<svg width="113" height="70" viewBox="0 0 113 70" fill="none" xmlns="http://www.w3.org/2000/svg">
<path fill-rule="evenodd" clip-rule="evenodd" d="M78.0574 1.05577C86.2907 1.05577 92.0118 2.44181 96.9119 5.04395C101.812 7.64634 105.658 11.4648 108.279 16.3307C110.899 21.1966 112.294 26.8788 112.294 35.055C112.294 43.231 110.899 48.9132 108.279 53.7791C105.658 58.645 101.812 62.4634 96.9119 65.0658C92.0118 67.6681 86.2907 69.0541 78.0574 69.0541L42.7351 68.9443C34.5026 68.9443 28.7805 67.5583 23.8804 64.956C22.817 64.391 21.8036 63.7694 20.8436 63.0895C14.9534 66.7976 7.96883 68.9443 0.479134 68.9443L-1.52588e-05 68.9461C1.88075 67.1295 3.47066 65.0232 4.74852 62.6501C7.19427 58.1085 8.4972 53.6031 8.4972 41.1817V34.9452V34.7858C8.49825 34.8386 8.4972 34.8923 8.4972 34.9452L8.49915 34.7858C8.51552 26.6952 9.91039 21.0553 12.5134 16.2209C15.135 11.355 18.9802 7.53655 23.8804 4.93416C28.7805 2.33203 34.5026 0.945984 42.7351 0.945984L78.0574 1.05577Z" fill="white"/>
<path d="M41 54.8H81V14.8H41V54.8Z" fill="black"/>
</svg>
